<svg width="270" height="34" viewBox="0 0 752.9 74.601" xmlns="http://www.w3.org/2000/svg"><g id="svgGroup" stroke-linecap="round" fill-rule="evenodd" font-size="9pt" stroke="#ffffff" stroke-width="0.25mm" fill="#ffffff" style="stroke:#ffffff;stroke-width:0.25mm;fill:#ffffff"><path d="M 0 50.9 L 0 48.1 L 3.2 48.1 L 3.2 51.3 Q 3.2 60.7 8.45 66.15 A 16.949 16.949 0 0 0 16.289 70.701 Q 19.014 71.459 22.274 71.578 A 33.726 33.726 0 0 0 23.5 71.6 Q 31.191 71.6 36.08 68.243 A 15.985 15.985 0 0 0 38.55 66.15 A 18.146 18.146 0 0 0 43.122 57.546 Q 43.798 54.689 43.8 51.326 A 33.457 33.457 0 0 0 43.8 51.3 L 43.8 1.2 L 47 1.2 L 47 50.9 A 31.786 31.786 0 0 1 46.436 57.035 A 23.641 23.641 0 0 1 44.25 63.4 Q 41.5 68.7 36.25 71.65 A 22.227 22.227 0 0 1 29.638 74.034 Q 26.964 74.565 23.909 74.598 A 37.666 37.666 0 0 1 23.5 74.6 A 31.08 31.08 0 0 1 17.427 74.035 A 22.609 22.609 0 0 1 10.8 71.65 Q 5.5 68.7 2.75 63.4 A 23.908 23.908 0 0 1 0.454 56.436 A 32.321 32.321 0 0 1 0 50.9 Z M 47 3 L 9.9 3 L 9.9 0 L 47 0 L 47 3 Z" id="0" vector-effect="non-scaling-stroke"/><path d="M 83.7 42.8 L 101.2 42.8 L 101.2 45.6 L 83.1 45.6 A 24.398 24.398 0 0 0 78.773 45.959 Q 76.398 46.388 74.52 47.328 A 11.828 11.828 0 0 0 71.9 49.1 A 11.56 11.56 0 0 0 68.061 56.986 A 16.05 16.05 0 0 0 68 58.4 A 14.331 14.331 0 0 0 68.605 62.67 A 11.13 11.13 0 0 0 72.3 68.1 A 15.383 15.383 0 0 0 79.595 71.319 A 21.063 21.063 0 0 0 83.1 71.6 Q 87.3 71.6 91.3 70 A 14.759 14.759 0 0 0 97.16 65.698 A 18.27 18.27 0 0 0 98.05 64.55 A 14.368 14.368 0 0 0 100.068 60.358 Q 100.636 58.499 100.864 56.285 A 29.148 29.148 0 0 0 101 54.2 L 102.6 55.8 A 24.661 24.661 0 0 1 102.028 60.479 Q 101.378 63.344 100.007 65.614 A 15.055 15.055 0 0 1 99.6 66.25 Q 96.8 70.4 92.45 72.4 A 22.105 22.105 0 0 1 84.505 74.351 A 26.059 26.059 0 0 1 82.9 74.4 A 22.703 22.703 0 0 1 76.244 73.444 A 20.703 20.703 0 0 1 73.85 72.55 Q 69.7 70.7 67.25 67.1 A 13.895 13.895 0 0 1 65.093 61.704 A 18.971 18.971 0 0 1 64.8 58.3 Q 64.8 53.6 67.05 50.1 A 14.1 14.1 0 0 1 71.994 45.469 A 17.607 17.607 0 0 1 73.5 44.7 Q 77.7 42.8 83.7 42.8 Z M 104.2 73 L 101.6 73 L 101.6 57.4 L 101 57.4 L 101 37.8 Q 101 32.302 98.61 28.757 A 11.768 11.768 0 0 0 97.45 27.3 Q 93.9 23.5 85.3 23.5 Q 82.7 23.5 80.15 23.65 Q 77.6 23.8 75.35 24 Q 73.1 24.2 71.2 24.5 L 71.2 21.5 Q 73.2 21.2 75.3 20.95 Q 77.4 20.7 79.55 20.6 A 91.898 91.898 0 0 1 82.691 20.506 A 82.272 82.272 0 0 1 83.7 20.5 A 47.157 47.157 0 0 1 88.248 20.705 Q 90.497 20.924 92.374 21.375 A 18.521 18.521 0 0 1 95.95 22.6 A 14.327 14.327 0 0 1 99.562 24.986 A 11.974 11.974 0 0 1 102.3 28.7 A 18.305 18.305 0 0 1 103.664 32.867 Q 104.2 35.466 104.2 38.6 L 104.2 73 Z" id="1" vector-effect="non-scaling-stroke"/><path d="M 163.6 73 L 159.5 73 L 135.9 48.4 L 127.7 48.4 L 153.9 21 L 157.8 21 L 134.7 45.1 L 134.6 42.8 L 163.6 73 Z M 128.4 73 L 125.2 73 L 125.2 0 L 128.4 0 L 128.4 73 Z" id="2" vector-effect="non-scaling-stroke"/><path d="M 193.3 74.4 L 193.1 74.4 Q 183.6 74.4 178.8 68.35 A 21.361 21.361 0 0 1 174.792 59.879 Q 174.05 56.749 174.003 53.09 A 38.648 38.648 0 0 1 174 52.6 L 174 21 L 177.2 21 L 177.2 53.4 A 24.948 24.948 0 0 0 177.826 59.137 A 17.728 17.728 0 0 0 181.3 66.35 A 13.207 13.207 0 0 0 188.941 70.943 A 20.527 20.527 0 0 0 193.4 71.4 A 20.939 20.939 0 0 0 198.822 70.737 A 14.786 14.786 0 0 0 206.2 66.25 A 17.806 17.806 0 0 0 210.456 57.209 A 24.751 24.751 0 0 0 210.8 53 L 210.8 21 L 214 21 L 214 73 L 211.4 73 L 211.4 52.6 L 212.6 52.6 A 30.81 30.81 0 0 1 211.994 58.835 A 24.962 24.962 0 0 1 210.45 63.75 A 18.022 18.022 0 0 1 206.332 69.727 A 17.323 17.323 0 0 1 204.05 71.55 A 16.119 16.119 0 0 1 198.643 73.835 Q 196.195 74.4 193.3 74.4 Z" id="3" vector-effect="non-scaling-stroke"/><path d="M 236.8 49.9 L 238.4 49.9 L 238.4 73 L 235.8 73 L 235.8 0 L 239 0 L 239 38.4 L 237 44.1 Q 237 37.3 239.9 31.7 Q 242.8 26.1 248.2 22.75 Q 253.6 19.4 261.1 19.4 Q 267.1 19.4 271.8 21.7 Q 276.5 24 279.7 27.9 Q 282.9 31.8 284.55 36.65 Q 286.2 41.5 286.2 46.7 L 286.2 47.3 Q 286.2 52.2 284.6 57 Q 283 61.8 279.85 65.8 Q 276.7 69.8 272 72.2 Q 267.3 74.6 261.1 74.6 A 27.266 27.266 0 0 1 254.654 73.871 A 21.132 21.132 0 0 1 248.05 71.05 Q 242.6 67.5 239.7 61.85 Q 236.8 56.2 236.8 49.9 Z M 238.8 44.3 L 238.8 49.7 Q 238.8 55.5 241.5 60.5 Q 244.2 65.5 249.15 68.55 A 20.312 20.312 0 0 0 256.734 71.287 A 26.783 26.783 0 0 0 260.9 71.6 A 24.236 24.236 0 0 0 266.672 70.945 A 18.283 18.283 0 0 0 273.05 68.05 Q 278 64.5 280.5 58.85 Q 283 53.2 283 47 Q 283 40.4 280.4 34.8 Q 277.8 29.2 272.85 25.8 Q 267.9 22.4 260.9 22.4 A 25.373 25.373 0 0 0 254.758 23.114 A 20.361 20.361 0 0 0 249.35 25.3 Q 244.4 28.2 241.6 33.15 A 21.777 21.777 0 0 0 238.856 42.581 A 26.353 26.353 0 0 0 238.8 44.3 Z" id="4" vector-effect="non-scaling-stroke"/><path d="M 324.2 73 L 321 73 L 349.1 0 L 356.9 0 L 386 73 L 382.7 73 L 354.2 1.5 L 356.8 3 L 349 3 L 351.6 1.5 L 324.2 73 Z M 373.7 47 L 332.8 47 L 333.9 44 L 372.5 44 L 373.7 47 Z" id="6" vector-effect="non-scaling-stroke"/><path d="M 396.4 47.3 L 396.4 46.7 Q 396.4 41.8 398 37 Q 399.6 32.2 402.75 28.2 Q 405.9 24.2 410.6 21.8 Q 415.3 19.4 421.5 19.4 A 27.778 27.778 0 0 1 427.684 20.055 A 20.566 20.566 0 0 1 434.55 22.95 Q 439.9 26.5 442.75 32.1 Q 445.6 37.7 445.6 44.1 L 443.6 38.4 L 443.6 0 L 446.8 0 L 446.8 73 L 444.2 73 L 444.2 49.9 L 445.8 49.9 Q 445.8 56.6 442.85 62.25 Q 439.9 67.9 434.45 71.25 A 22.366 22.366 0 0 1 426.201 74.239 A 29.557 29.557 0 0 1 421.5 74.6 Q 415.5 74.6 410.8 72.3 Q 406.1 70 402.9 66.1 Q 399.7 62.2 398.05 57.35 Q 396.4 52.5 396.4 47.3 Z M 443.8 49.7 L 443.8 44.3 Q 443.8 38.5 441.1 33.5 Q 438.4 28.5 433.45 25.45 A 20.312 20.312 0 0 0 425.867 22.713 A 26.783 26.783 0 0 0 421.7 22.4 A 24.197 24.197 0 0 0 416.035 23.032 A 18.023 18.023 0 0 0 409.6 25.95 Q 404.7 29.5 402.15 35.15 Q 399.6 40.8 399.6 47 Q 399.6 53.6 402.2 59.2 Q 404.8 64.8 409.75 68.2 Q 414.7 71.6 421.7 71.6 Q 428.3 71.6 433.3 68.7 Q 438.3 65.8 441.05 60.85 A 22.023 22.023 0 0 0 443.733 51.607 A 26.713 26.713 0 0 0 443.8 49.7 Z" id="7" vector-effect="non-scaling-stroke"/><path d="M 482.5 42.8 L 500 42.8 L 500 45.6 L 481.9 45.6 A 24.398 24.398 0 0 0 477.573 45.959 Q 475.198 46.388 473.32 47.328 A 11.828 11.828 0 0 0 470.7 49.1 A 11.56 11.56 0 0 0 466.861 56.986 A 16.05 16.05 0 0 0 466.8 58.4 A 14.331 14.331 0 0 0 467.405 62.67 A 11.13 11.13 0 0 0 471.1 68.1 A 15.383 15.383 0 0 0 478.395 71.319 A 21.063 21.063 0 0 0 481.9 71.6 Q 486.1 71.6 490.1 70 A 14.759 14.759 0 0 0 495.96 65.698 A 18.27 18.27 0 0 0 496.85 64.55 A 14.368 14.368 0 0 0 498.868 60.358 Q 499.436 58.499 499.664 56.285 A 29.148 29.148 0 0 0 499.8 54.2 L 501.4 55.8 A 24.661 24.661 0 0 1 500.828 60.479 Q 500.178 63.344 498.807 65.614 A 15.055 15.055 0 0 1 498.4 66.25 Q 495.6 70.4 491.25 72.4 A 22.105 22.105 0 0 1 483.305 74.351 A 26.059 26.059 0 0 1 481.7 74.4 A 22.703 22.703 0 0 1 475.044 73.444 A 20.703 20.703 0 0 1 472.65 72.55 Q 468.5 70.7 466.05 67.1 A 13.895 13.895 0 0 1 463.893 61.704 A 18.971 18.971 0 0 1 463.6 58.3 Q 463.6 53.6 465.85 50.1 A 14.1 14.1 0 0 1 470.794 45.469 A 17.607 17.607 0 0 1 472.3 44.7 Q 476.5 42.8 482.5 42.8 Z M 503 73 L 500.4 73 L 500.4 57.4 L 499.8 57.4 L 499.8 37.8 Q 499.8 32.302 497.41 28.757 A 11.768 11.768 0 0 0 496.25 27.3 Q 492.7 23.5 484.1 23.5 Q 481.5 23.5 478.95 23.65 Q 476.4 23.8 474.15 24 Q 471.9 24.2 470 24.5 L 470 21.5 Q 472 21.2 474.1 20.95 Q 476.2 20.7 478.35 20.6 A 91.898 91.898 0 0 1 481.491 20.506 A 82.272 82.272 0 0 1 482.5 20.5 A 47.157 47.157 0 0 1 487.048 20.705 Q 489.297 20.924 491.174 21.375 A 18.521 18.521 0 0 1 494.75 22.6 A 14.327 14.327 0 0 1 498.362 24.986 A 11.974 11.974 0 0 1 501.1 28.7 A 18.305 18.305 0 0 1 502.464 32.867 Q 503 35.466 503 38.6 L 503 73 Z" id="8" vector-effect="non-scaling-stroke"/><path d="M 527.2 73 L 524 73 L 524 20.9 L 526.6 20.9 L 526.6 41.8 L 525.4 41.8 A 33.235 33.235 0 0 1 525.962 35.561 A 26.315 26.315 0 0 1 527.45 30.5 A 18.686 18.686 0 0 1 530.918 24.935 A 17.279 17.279 0 0 1 533.6 22.55 A 15.151 15.151 0 0 1 539.224 20.092 Q 541.429 19.6 544 19.6 L 544.2 19.6 A 22.198 22.198 0 0 1 548.716 20.035 Q 551.676 20.65 553.981 22.134 A 13.785 13.785 0 0 1 554.45 22.45 A 16.497 16.497 0 0 1 559.999 29.232 A 20.282 20.282 0 0 1 560.45 30.3 Q 562.4 35.3 562.4 41.8 L 560.8 41.8 A 34.042 34.042 0 0 1 561.348 35.561 A 26.815 26.815 0 0 1 562.8 30.5 Q 564.8 25.5 568.95 22.55 A 15.472 15.472 0 0 1 574.721 20.068 A 22.154 22.154 0 0 1 579.4 19.6 L 579.6 19.6 A 22.231 22.231 0 0 1 584.208 20.052 Q 587.333 20.714 589.745 22.344 A 14.101 14.101 0 0 1 589.9 22.45 Q 594 25.3 596 30.3 A 27.228 27.228 0 0 1 597.617 36.4 A 36.472 36.472 0 0 1 598 41.8 L 598 73 L 594.8 73 L 594.8 41 Q 594.8 33 590.95 27.8 A 12.431 12.431 0 0 0 583.06 22.946 A 19.381 19.381 0 0 0 579.3 22.6 A 18.907 18.907 0 0 0 574.074 23.284 A 14.011 14.011 0 0 0 567 27.9 A 18.728 18.728 0 0 0 563.03 36.558 A 26.117 26.117 0 0 0 562.6 41.4 L 562.6 73 L 559.4 73 L 559.4 41 Q 559.4 33 555.55 27.8 A 12.431 12.431 0 0 0 547.66 22.946 A 19.381 19.381 0 0 0 543.9 22.6 A 18.907 18.907 0 0 0 538.674 23.284 A 14.011 14.011 0 0 0 531.6 27.9 A 18.728 18.728 0 0 0 527.63 36.558 A 26.117 26.117 0 0 0 527.2 41.4 L 527.2 73 Z" id="9" vector-effect="non-scaling-stroke"/><path d="M 614.4 58.8 L 617.6 58.8 A 11.857 11.857 0 0 0 621.213 67.467 A 14.982 14.982 0 0 0 621.45 67.7 A 11.412 11.412 0 0 0 625.362 70.096 Q 628.742 71.38 633.746 71.4 A 39.69 39.69 0 0 0 633.9 71.4 A 31.146 31.146 0 0 0 638.362 71.103 Q 640.605 70.778 642.396 70.094 A 11.412 11.412 0 0 0 646.35 67.65 A 12.971 12.971 0 0 0 649.145 63.769 A 11.774 11.774 0 0 0 650.2 58.8 A 10.894 10.894 0 0 0 649.71 55.444 A 8.576 8.576 0 0 0 646.4 51 A 17.257 17.257 0 0 0 641.372 48.58 A 24.068 24.068 0 0 0 636.9 47.7 L 630.5 47 A 23.987 23.987 0 0 1 626.104 46.062 Q 623.561 45.247 621.623 43.87 A 13.555 13.555 0 0 1 620.3 42.8 A 11.273 11.273 0 0 1 616.674 35.337 A 15.641 15.641 0 0 1 616.6 33.8 Q 616.6 29.9 618.6 26.65 A 13.589 13.589 0 0 1 622.457 22.624 A 17.521 17.521 0 0 1 624.5 21.4 A 17.4 17.4 0 0 1 629.096 19.839 Q 631.322 19.4 633.9 19.4 Q 641.6 19.4 646.4 23.4 A 12.766 12.766 0 0 1 651.158 32.621 A 16.218 16.218 0 0 1 651.2 33.8 L 648 33.8 A 12.583 12.583 0 0 0 648.003 33.543 Q 648.003 29.128 644.863 26.077 A 12.512 12.512 0 0 0 644.4 25.65 Q 641.278 22.908 635.95 22.479 A 25.582 25.582 0 0 0 633.9 22.4 A 24.134 24.134 0 0 0 630.006 22.692 Q 627.949 23.03 626.325 23.755 A 9.971 9.971 0 0 0 623.2 25.9 A 12.244 12.244 0 0 0 620.704 29.549 A 11.043 11.043 0 0 0 619.8 34 A 9.171 9.171 0 0 0 622.513 40.561 A 11.897 11.897 0 0 0 622.6 40.65 Q 625.013 43.105 629.355 43.891 A 21.407 21.407 0 0 0 630.8 44.1 L 637.2 44.8 Q 644 45.5 648.7 48.95 A 11.211 11.211 0 0 1 653.286 57.014 A 16.632 16.632 0 0 1 653.4 59 Q 653.4 63.2 651.15 66.7 A 14.813 14.813 0 0 1 646.886 70.989 A 19.126 19.126 0 0 1 644.6 72.3 A 19.274 19.274 0 0 1 640.108 73.807 Q 638.002 74.252 635.563 74.363 A 36.543 36.543 0 0 1 633.9 74.4 A 32.523 32.523 0 0 1 628.402 73.965 Q 622.838 73.009 619.4 69.95 A 14.584 14.584 0 0 1 615.323 64.142 A 15.105 15.105 0 0 1 614.4 58.8 Z" id="10" vector-effect="non-scaling-stroke"/><path d="M 709 73 L 704.9 73 L 681.3 48.4 L 673.1 48.4 L 699.3 21 L 703.2 21 L 680.1 45.1 L 680 42.8 L 709 73 Z M 673.8 73 L 670.6 73 L 670.6 0 L 673.8 0 L 673.8 73 Z" id="11" vector-effect="non-scaling-stroke"/><path d="M 727 73 L 723.8 73 L 723.8 21 L 727 21 L 727 73 Z M 727 21 L 714.8 21 L 714.8 24 L 727 24 L 727 21 Z M 722.183 8.694 A 4.582 4.582 0 0 0 723.2 8.8 Q 723.997 8.8 724.607 8.602 A 2.672 2.672 0 0 0 725.75 7.9 A 3.003 3.003 0 0 0 726.482 6.536 A 4.289 4.289 0 0 0 726.6 5.5 A 4.35 4.35 0 0 0 726.587 5.157 A 3.315 3.315 0 0 0 725.75 3.15 A 2.651 2.651 0 0 0 725.484 2.891 Q 724.98 2.466 724.27 2.302 A 4.319 4.319 0 0 0 723.3 2.2 A 5.767 5.767 0 0 0 723.046 2.206 Q 721.532 2.272 720.7 3.15 Q 719.8 4.1 719.8 5.5 A 4.296 4.296 0 0 0 719.864 6.255 A 3.012 3.012 0 0 0 720.7 7.9 A 2.822 2.822 0 0 0 720.917 8.096 Q 721.448 8.526 722.183 8.694 Z" id="12" vector-effect="non-scaling-stroke"/><path d="M 752.9 73 L 748.1 73 L 748.1 67.6 L 752.9 67.6 L 752.9 73 Z"  id="13"  vector-effect="non-scaling-stroke" /></g></svg>